<svg width="20" height="20" viewBox="0 0 20 20" fill="none" xmlns="http://www.w3.org/2000/svg">
<path fill-rule="evenodd" clip-rule="evenodd" d="M17.738 8H20V12H17.739C17.498 12.931 17.1 13.798 16.565 14.564L18 16L16 18L14.565 16.564C13.797 17.099 12.932 17.498 12 17.738V20H8V17.738C7.069 17.498 6.203 17.099 5.436 16.564L4 18L2 16L3.436 14.564C2.901 13.799 2.502 12.932 2.262 12H0V8H2.262C2.502 7.068 2.9 6.202 3.436 5.436L2 4L4 2L5.436 3.436C6.202 2.9 7.068 2.502 8 2.262V0H12V2.261C12.932 2.502 13.797 2.9 14.565 3.435L16 1.999L18 3.999L16.564 5.436C17.099 6.202 17.498 7.069 17.738 8ZM10 14C12.2091 14 14 12.2091 14 10C14 7.79086 12.2091 6 10 6C7.79086 6 6 7.79086 6 10C6 12.2091 7.79086 14 10 14Z" fill="#B9BBBE"/>
</svg>
