<svg width="20" height="20" viewBox="0 0 20 20" fill="none" xmlns="http://www.w3.org/2000/svg">
<path d="M10 0C4.48605 0 6.10352e-05 4.48499 6.10352e-05 10V18C6.10352e-05 19.104 0.895059 20 2.00006 20H4.00005C5.10405 20 6.00005 19.104 6.00005 18V15C6.00005 13.896 5.10405 13 4.00005 13H2.00006V10C2.00006 5.58799 5.58905 1.99999 10 1.99999C14.411 1.99999 18 5.58799 18 10V13H16C14.896 13 14 13.896 14 15V18C14 19.104 14.896 20 16 20H18C19.104 20 20 19.104 20 18V10C20 4.48499 15.514 0 10 0Z" fill="#B9BBBE"/>
</svg>
