<svg width="20" height="24" viewBox="0 0 20 24" fill="none" xmlns="http://www.w3.org/2000/svg">
<path fill-rule="evenodd" clip-rule="evenodd" d="M6.67798 10.9834C6.68354 11.0139 6.6891 11.0445 6.6891 11.0778L13.3335 4.42225V4.22225C13.3335 2.3778 11.8447 0.888916 10.0002 0.888916C8.15576 0.888916 6.66687 2.3778 6.66687 4.22225V10.8889C6.66687 10.9222 6.67243 10.9528 6.67798 10.9834ZM4.1113 10.8889H2.22241C2.22241 12.2111 2.60019 13.4444 3.22241 14.5333L4.58908 13.1667C4.28908 12.4778 4.1113 11.7111 4.1113 10.8889ZM8.84794 17.3923L9.69294 16.5474C9.79494 16.5528 9.89727 16.5556 9.99994 16.5556C13.0666 16.5556 15.8888 14.2222 15.8888 10.8889H17.7777C17.7777 14.6778 14.7555 17.8111 11.111 18.3556V23.1111H8.88882V18.3556C8.60771 18.3154 8.33082 18.2589 8.05916 18.1876L8.84794 17.3923Z" fill="#B9BBBE"/>
<path d="M20.0001 3.41117L18.589 2.00006L6.10352e-05 20.589L1.41117 22.0001L6.06673 17.3556L7.43339 15.9778L9.27784 14.1334L13.3223 10.089L20.0001 3.41117Z" fill="#ED4245"/>
</svg>
